<svg xmlns="http://www.w3.org/2000/svg" viewBox="0 0 200 200">
  <defs>
    <linearGradient id="shieldGrad" x1="0%" y1="0%" x2="100%" y2="100%">
      <stop offset="0%" style="stop-color:#1e40af"/>
      <stop offset="100%" style="stop-color:#3b82f6"/>
    </linearGradient>
    <linearGradient id="innerGrad" x1="0%" y1="0%" x2="0%" y2="100%">
      <stop offset="0%" style="stop-color:#60a5fa"/>
      <stop offset="100%" style="stop-color:#1e40af"/>
    </linearGradient>
  </defs>
  
  <!-- Shield shape -->
  <path d="M100 10 L180 50 L180 100 C180 150 140 185 100 195 C60 185 20 150 20 100 L20 50 Z" 
        fill="url(#shieldGrad)"/>
  
  <!-- Inner shield highlight -->
  <path d="M100 25 L165 58 L165 100 C165 142 132 172 100 180 C68 172 35 142 35 100 L35 58 Z" 
        fill="url(#innerGrad)" opacity="0.3"/>
  
  <!-- X mark -->
  <path d="M70 65 L100 95 L130 65 L140 75 L110 105 L140 135 L130 145 L100 115 L70 145 L60 135 L90 105 L60 75 Z" 
        fill="white"/>
  
  <!-- Small AI accent dots -->
  <circle cx="160" cy="35" r="6" fill="#93c5fd" opacity="0.8"/>
  <circle cx="170" cy="50" r="4" fill="#60a5fa" opacity="0.6"/>
</svg>
